<svg xmlns="http://www.w3.org/2000/svg" width="236.737" height="424.652" viewBox="0 0 236.737 424.652">
  <g id="Original_Logo_Letter_S" data-name="Original Logo Letter S" transform="translate(-57.336 -469.827)">
    <g id="Group_17" data-name="Group 17" transform="translate(57.336 475.902)">
      <g id="Group_16" data-name="Group 16">
        <path id="Path_45" data-name="Path 45" d="M283.941,747.554c.906-93.421-134.008-103.171-160.311-167.566s62.356-106.346,62.356-106.346C103.222,497,41.774,559.806,60.821,625.109c17.214,59.018,90.019,70.519,131.513,106.572,55.613,48.319-7.377,123.7-30.61,160.537C210.41,862.022,283.476,795.466,283.941,747.554Z" transform="translate(-57.336 -473.642)" fill="#21d8aa"/>
      </g>
    </g>
    <g id="Group_19" data-name="Group 19" transform="translate(67.464 469.827)">
      <g id="Group_18" data-name="Group 18">
        <path id="Path_46" data-name="Path 46" d="M290.3,743.738c.908-93.42-134.008-103.171-160.311-167.566s62.356-106.345,62.356-106.345C109.582,493.181,48.133,555.991,67.181,621.294c17.212,59.018,90.018,70.517,131.513,106.571,55.611,48.319-7.378,123.7-30.612,160.538C216.771,858.206,289.834,791.649,290.3,743.738Z" transform="translate(-63.695 -469.827)" fill="#2064d8"/>
      </g>
    </g>
  </g>
</svg>